<?xml version="1.0" encoding="UTF-8" standalone="no"?><svg xmlns="http://www.w3.org/2000/svg" xmlns:xlink="http://www.w3.org/1999/xlink" contentScriptType="application/ecmascript" contentStyleType="text/css" height="554px" preserveAspectRatio="none" style="width:495px;height:554px;" version="1.1" viewBox="0 0 495 554" width="495px" zoomAndPan="magnify"><defs><filter height="300%" id="fk272t07pmk4v" width="300%" x="-1" y="-1"><feGaussianBlur result="blurOut" stdDeviation="2.0"/><feColorMatrix in="blurOut" result="blurOut2" type="matrix" values="0 0 0 0 0 0 0 0 0 0 0 0 0 0 0 0 0 0 .4 0"/><feOffset dx="4.0" dy="4.0" in="blurOut2" result="blurOut3"/><feBlend in="SourceGraphic" in2="blurOut3" mode="normal"/></filter></defs><g><line style="stroke: #A80036; stroke-width: 1.0;" x1="34" x2="34" y1="86.4883" y2="386.2832"/><line style="stroke: #A80036; stroke-width: 1.0; stroke-dasharray: 1.0,4.0;" x1="34" x2="34" y1="386.2832" y2="427.2383"/><line style="stroke: #A80036; stroke-width: 1.0;" x1="34" x2="34" y1="427.2383" y2="466.5488"/><line style="stroke: #A80036; stroke-width: 1.0;" x1="204" x2="204" y1="86.4883" y2="386.2832"/><line style="stroke: #A80036; stroke-width: 1.0; stroke-dasharray: 1.0,4.0;" x1="204" x2="204" y1="386.2832" y2="427.2383"/><line style="stroke: #A80036; stroke-width: 1.0;" x1="204" x2="204" y1="427.2383" y2="466.5488"/><line style="stroke: #A80036; stroke-width: 1.0;" x1="458.5" x2="458.5" y1="86.4883" y2="386.2832"/><line style="stroke: #A80036; stroke-width: 1.0; stroke-dasharray: 1.0,4.0;" x1="458.5" x2="458.5" y1="386.2832" y2="427.2383"/><line style="stroke: #A80036; stroke-width: 1.0;" x1="458.5" x2="458.5" y1="427.2383" y2="466.5488"/><text fill="#000000" font-family="sans-serif" font-size="14" lengthAdjust="spacingAndGlyphs" textLength="47" x="8" y="83.5352">master</text><ellipse cx="34.5" cy="13" fill="#FEFECE" filter="url(#fk272t07pmk4v)" rx="8" ry="8" style="stroke: #A80036; stroke-width: 2.0;"/><path d="M34.5,21 L34.5,48 M21.5,29 L47.5,29 M34.5,48 L21.5,63 M34.5,48 L47.5,63 " fill="none" filter="url(#fk272t07pmk4v)" style="stroke: #A80036; stroke-width: 2.0;"/><text fill="#000000" font-family="sans-serif" font-size="14" lengthAdjust="spacingAndGlyphs" textLength="47" x="8" y="479.084">master</text><ellipse cx="34.5" cy="492.0371" fill="#FEFECE" filter="url(#fk272t07pmk4v)" rx="8" ry="8" style="stroke: #A80036; stroke-width: 2.0;"/><path d="M34.5,500.0371 L34.5,527.0371 M21.5,508.0371 L47.5,508.0371 M34.5,527.0371 L21.5,542.0371 M34.5,527.0371 L47.5,542.0371 " fill="none" filter="url(#fk272t07pmk4v)" style="stroke: #A80036; stroke-width: 2.0;"/><rect fill="#FEFECE" filter="url(#fk272t07pmk4v)" height="30.4883" style="stroke: #A80036; stroke-width: 1.5;" width="55" x="177" y="47"/><rect fill="#FEFECE" filter="url(#fk272t07pmk4v)" height="30.4883" style="stroke: #A80036; stroke-width: 1.5;" width="55" x="173" y="51"/><text fill="#000000" font-family="sans-serif" font-size="14" lengthAdjust="spacingAndGlyphs" textLength="41" x="180" y="71.5352">slaves</text><rect fill="#FEFECE" filter="url(#fk272t07pmk4v)" height="30.4883" style="stroke: #A80036; stroke-width: 1.5;" width="55" x="177" y="465.5488"/><rect fill="#FEFECE" filter="url(#fk272t07pmk4v)" height="30.4883" style="stroke: #A80036; stroke-width: 1.5;" width="55" x="173" y="469.5488"/><text fill="#000000" font-family="sans-serif" font-size="14" lengthAdjust="spacingAndGlyphs" textLength="41" x="180" y="490.084">slaves</text><rect fill="#FEFECE" filter="url(#fk272t07pmk4v)" height="30.4883" style="stroke: #A80036; stroke-width: 1.5;" width="56" x="428.5" y="51"/><text fill="#000000" font-family="sans-serif" font-size="14" lengthAdjust="spacingAndGlyphs" textLength="42" x="435.5" y="71.5352">server</text><rect fill="#FEFECE" filter="url(#fk272t07pmk4v)" height="30.4883" style="stroke: #A80036; stroke-width: 1.5;" width="56" x="428.5" y="465.5488"/><text fill="#000000" font-family="sans-serif" font-size="14" lengthAdjust="spacingAndGlyphs" textLength="42" x="435.5" y="486.084">server</text><polygon fill="#A80036" points="446.5,113.7988,456.5,117.7988,446.5,121.7988,450.5,117.7988" style="stroke: #A80036; stroke-width: 1.0;"/><line style="stroke: #A80036; stroke-width: 1.0;" x1="34.5" x2="452.5" y1="117.7988" y2="117.7988"/><text fill="#000000" font-family="sans-serif" font-size="13" lengthAdjust="spacingAndGlyphs" textLength="113" x="41.5" y="113.0566">register as master</text><polygon fill="#A80036" points="446.5,143.1094,456.5,147.1094,446.5,151.1094,450.5,147.1094" style="stroke: #A80036; stroke-width: 1.0;"/><line style="stroke: #A80036; stroke-width: 1.0;" x1="204.5" x2="452.5" y1="147.1094" y2="147.1094"/><text fill="#000000" font-family="sans-serif" font-size="13" lengthAdjust="spacingAndGlyphs" textLength="230" x="211.5" y="142.3672">register as slave(s) (with slave name)</text><polygon fill="#A80036" points="45.5,172.4199,35.5,176.4199,45.5,180.4199,41.5,176.4199" style="stroke: #A80036; stroke-width: 1.0;"/><line style="stroke: #A80036; stroke-width: 1.0;" x1="39.5" x2="457.5" y1="176.4199" y2="176.4199"/><text fill="#000000" font-family="sans-serif" font-size="13" lengthAdjust="spacingAndGlyphs" textLength="103" x="51.5" y="171.6777">event: new slave</text><polygon fill="#A80036" points="446.5,201.7305,456.5,205.7305,446.5,209.7305,450.5,205.7305" style="stroke: #A80036; stroke-width: 1.0;"/><line style="stroke: #A80036; stroke-width: 1.0;" x1="34.5" x2="452.5" y1="205.7305" y2="205.7305"/><text fill="#000000" font-family="sans-serif" font-size="13" lengthAdjust="spacingAndGlyphs" textLength="121" x="41.5" y="200.9883">event: select music</text><polygon fill="#A80036" points="215.5,231.041,205.5,235.041,215.5,239.041,211.5,235.041" style="stroke: #A80036; stroke-width: 1.0;"/><line style="stroke: #A80036; stroke-width: 1.0;" x1="209.5" x2="457.5" y1="235.041" y2="235.041"/><text fill="#000000" font-family="sans-serif" font-size="13" lengthAdjust="spacingAndGlyphs" textLength="185" x="221.5" y="230.2988">broadcast: selected music url</text><line style="stroke: #A80036; stroke-width: 1.0;" x1="34.5" x2="76.5" y1="264.3516" y2="264.3516"/><line style="stroke: #A80036; stroke-width: 1.0;" x1="76.5" x2="76.5" y1="264.3516" y2="277.3516"/><line style="stroke: #A80036; stroke-width: 1.0;" x1="35.5" x2="76.5" y1="277.3516" y2="277.3516"/><polygon fill="#A80036" points="45.5,273.3516,35.5,277.3516,45.5,281.3516,41.5,277.3516" style="stroke: #A80036; stroke-width: 1.0;"/><text fill="#000000" font-family="sans-serif" font-size="13" lengthAdjust="spacingAndGlyphs" textLength="156" x="41.5" y="259.6094">start downloading music</text><polygon fill="#A80036" points="446.5,302.6621,456.5,306.6621,446.5,310.6621,450.5,306.6621" style="stroke: #A80036; stroke-width: 1.0;"/><line style="stroke: #A80036; stroke-width: 1.0;" x1="34.5" x2="452.5" y1="306.6621" y2="306.6621"/><text fill="#000000" font-family="sans-serif" font-size="13" lengthAdjust="spacingAndGlyphs" textLength="220" x="41.5" y="301.9199">event: finished downloading music</text><line style="stroke: #A80036; stroke-width: 1.0;" x1="204.5" x2="246.5" y1="335.9727" y2="335.9727"/><line style="stroke: #A80036; stroke-width: 1.0;" x1="246.5" x2="246.5" y1="335.9727" y2="348.9727"/><line style="stroke: #A80036; stroke-width: 1.0;" x1="205.5" x2="246.5" y1="348.9727" y2="348.9727"/><polygon fill="#A80036" points="215.5,344.9727,205.5,348.9727,215.5,352.9727,211.5,348.9727" style="stroke: #A80036; stroke-width: 1.0;"/><text fill="#000000" font-family="sans-serif" font-size="13" lengthAdjust="spacingAndGlyphs" textLength="156" x="211.5" y="331.2305">start downloading music</text><polygon fill="#A80036" points="446.5,374.2832,456.5,378.2832,446.5,382.2832,450.5,378.2832" style="stroke: #A80036; stroke-width: 1.0;"/><line style="stroke: #A80036; stroke-width: 1.0;" x1="204.5" x2="452.5" y1="378.2832" y2="378.2832"/><text fill="#000000" font-family="sans-serif" font-size="13" lengthAdjust="spacingAndGlyphs" textLength="220" x="211.5" y="373.541">event: finished downloading music</text><text fill="#000000" font-family="sans-serif" font-size="11" lengthAdjust="spacingAndGlyphs" textLength="291" x="101" y="410.918">Master and slaves have all finished downloading music</text><polygon fill="#A80036" points="45.5,444.5488,35.5,448.5488,45.5,452.5488,41.5,448.5488" style="stroke: #A80036; stroke-width: 1.0;"/><line style="stroke: #A80036; stroke-width: 1.0;" x1="39.5" x2="457.5" y1="448.5488" y2="448.5488"/><text fill="#000000" font-family="sans-serif" font-size="13" lengthAdjust="spacingAndGlyphs" textLength="76" x="51.5" y="443.8066">event: ready</text><!--
@startuml sequence.svg
actor master
collections slaves

master -> server : register as master
slaves -> server : register as slave(s) (with slave name)
server -> master : event: new slave 
master -> server : event: select music
server -> slaves : broadcast: selected music url
master -> master : start downloading music
master -> server : event: finished downloading music
slaves -> slaves : start downloading music
slaves -> server : event: finished downloading music
... Master and slaves have all finished downloading music ...
server -> master : event: ready
@enduml

PlantUML version 1.2019.06(Sat May 25 02:10:25 JST 2019)
(GPL source distribution)
Java Runtime: Java(TM) SE Runtime Environment
JVM: Java HotSpot(TM) 64-Bit Server VM
Java Version: 1.8.0_191-b12
Operating System: Mac OS X
OS Version: 10.14.4
Default Encoding: UTF-8
Language: en
Country: JP
--></g></svg>